<svg clip-rule="evenodd" fill-rule="evenodd" stroke-linejoin="round" stroke-miterlimit="2" viewBox="0 0 473 473" xmlns="http://www.w3.org/2000/svg" xmlns:xlink="http://www.w3.org/1999/xlink"><clipPath id="a"><path clip-rule="evenodd" d="m0 0h473v473h-473z"/></clipPath><path d="m0 0h473v473h-473z" fill="none"/><g clip-path="url(#a)"><path d="m233.983 9.606c-7.939 48.029-35.006 102.351-69.893 140.553-36.089 39.417-87.697 69.007-144.117 82.587-7.458 1.767-13.473 3.423-13.473 3.754s6.015 1.988 13.473 3.754c56.42 13.581 108.389 43.502 144.719 83.139 34.285 37.54 61.352 92.304 69.291 140.001.842 5.3 1.925 9.606 2.286 9.606.481 0 1.564-4.306 2.406-9.606 4.571-26.057 15.398-56.42 29.954-83.691 37.052-69.448 97.923-116.373 179.124-138.013 8.18-2.209 15.759-4.086 16.722-4.086 4.451 0 1.082-1.987-5.414-3.422-11.909-2.429-36.571-10.269-51.247-16.231-61.592-25.173-108.629-67.35-139.185-124.653-14.556-27.272-25.383-57.635-29.954-83.692-.842-5.299-1.925-9.606-2.406-9.606-.361 0-1.444 4.307-2.286 9.606z" fill="#fec136" fill-rule="nonzero"/></g></svg>